<svg width="48" height="33" viewBox="0 0 48 33" fill="none" xmlns="http://www.w3.org/2000/svg">
<g clip-path="url(#clip0_0_119)">
<path d="M4.84293 5.2842L14.2558 3.31046C14.7045 3.21637 15.3146 3.31542 15.8021 3.56293C16.2895 3.81043 16.5584 4.15523 16.4827 4.43768L15.9207 6.53505L17.3022 6.90522C33.3246 11.1984 44.552 21.2519 42.3793 29.3603L42.1261 29.9372C42.0227 30.3231 41.1984 31.2918 40.4359 31.0875C41.9877 25.296 27.6224 14.1664 16.1782 11.1L14.7967 10.7298L14.2348 12.8272C14.1591 13.1096 13.7534 13.2752 13.2079 13.2444C12.662 13.215 12.0841 12.9957 11.7426 12.6899L4.57767 6.27416C4.11232 5.85574 4.23072 5.41389 4.84293 5.2842Z" fill="black"/>
</g>
<defs>
<clipPath id="clip0_0_119">
<rect width="42.9071" height="21.714" fill="white" transform="matrix(-0.965926 -0.258819 -0.258819 0.965926 47.25 11.1826)"/>
</clipPath>
</defs>
</svg>
