<svg width="41" height="58" viewBox="0 0 41 58" fill="none" xmlns="http://www.w3.org/2000/svg">
<g clip-path="url(#clip0_0_115)">
<path d="M6.21821 50.809L4.53444 39.4652C4.45418 38.9244 4.61522 38.2052 4.9443 37.6425C5.27338 37.0798 5.70281 36.7841 6.03366 36.8941L8.49045 37.7114L9.02875 36.0932C15.272 17.3251 28.0326 4.67193 37.5306 7.83143L38.1993 8.17367C38.6513 8.32404 39.7462 9.37364 39.449 10.2669C32.665 8.01019 18.4016 24.3224 13.9423 37.7277L13.404 39.3459L15.8608 40.1631C16.1916 40.2732 16.36 40.7677 16.2848 41.4149C16.2113 42.0626 15.9094 42.735 15.5212 43.1199L7.37781 51.1947C6.84685 51.719 6.32929 51.5468 6.21821 50.809Z" fill="white"/>
</g>
<defs>
<clipPath id="clip0_0_115">
<rect width="51.1628" height="25.8919" fill="white" transform="matrix(-0.315645 0.948877 0.948877 0.315645 16.2378 0.748535)"/>
</clipPath>
</defs>
</svg>
