<svg width="41" height="49" viewBox="0 0 41 49" fill="none" xmlns="http://www.w3.org/2000/svg">
<g clip-path="url(#clip0_0_123)">
<path d="M36.0667 8.61186L35.537 18.2148C35.5117 18.6726 35.2582 19.2363 34.8929 19.6431C34.5277 20.0498 34.125 20.2203 33.8718 20.0741L31.9914 18.9885L31.2762 20.2271C22.9824 34.5923 10.3657 42.8351 3.09586 38.6379L2.60421 38.244C2.25821 38.0442 1.53578 36.9973 1.93051 36.3136C7.12307 39.3115 21.5914 28.3163 27.5153 18.0557L28.2304 16.8171L26.35 15.7314C26.0968 15.5852 26.0418 15.1505 26.2128 14.6316C26.3824 14.1119 26.7438 13.6104 27.1276 13.3597L35.1791 8.09942C35.7038 7.75823 36.0999 7.98695 36.0667 8.61186Z" fill="black"/>
</g>
<defs>
<clipPath id="clip0_0_123">
<rect width="42.9071" height="21.714" fill="white" transform="matrix(0.5 -0.866025 -0.866025 -0.5 19.3936 48.0474)"/>
</clipPath>
</defs>
</svg>
