<svg width="27" height="46" viewBox="0 0 27 46" fill="none" xmlns="http://www.w3.org/2000/svg">
<g clip-path="url(#clip0_0_111)">
<path d="M21.638 42.9631L24.7477 34.0142C24.8959 33.5876 24.8757 32.9791 24.6951 32.4718C24.5145 31.9645 24.2113 31.6585 23.9259 31.697L21.8062 31.9828L21.6179 30.5866C19.4342 14.3935 11.0207 2.16234 2.82591 3.26745L2.23053 3.44248C1.8405 3.49508 0.790544 4.17879 0.894477 4.9495C6.74772 4.16016 15.8187 19.5922 17.3784 31.1583L17.5667 32.5545L15.447 32.8404C15.1615 32.8789 14.9489 33.2544 14.9105 33.7913C14.8707 34.3283 15.0124 34.9205 15.2683 35.2925L20.6375 43.098C20.9879 43.6052 21.4344 43.545 21.638 42.9631Z" fill="black"/>
</g>
<defs>
<clipPath id="clip0_0_111">
<rect width="42.2658" height="21.3894" fill="white" transform="translate(21.1973 0.790039) rotate(82.3198)"/>
</clipPath>
</defs>
</svg>
