<svg width="36" height="36" viewBox="0 0 36 36" fill="none" xmlns="http://www.w3.org/2000/svg">
<path d="M32.9948 1.10742H2.96921C1.94109 1.10804 1.10764 1.9419 1.10785 2.97043V32.9961C1.10847 34.0242 1.94233 34.8576 2.97086 34.8574H19.1364V21.8057H14.7529V16.697H19.1364V12.9374C19.1364 8.57758 21.7981 6.20453 25.6872 6.20453C27.55 6.20453 29.1508 6.34337 29.6174 6.40537V10.9622H26.9355C24.8196 10.9622 24.4099 11.9676 24.4099 13.4434V16.697H29.4691L28.8099 21.8057H24.4099V34.8574H32.9948C34.0236 34.8576 34.8576 34.024 34.8578 32.9952C34.8578 32.995 34.8578 32.9948 34.8578 32.9944V2.96878C34.8574 1.94067 34.0234 1.10722 32.9948 1.10742Z" fill="#FFD603"/>
</svg>
