<svg width="86" height="86" viewBox="0 0 86 86" fill="none" xmlns="http://www.w3.org/2000/svg">
<g clip-path="url(#clip0_0_366)">
<path d="M0 17C0 7.61116 7.61116 0 17 0H69C78.3888 0 86 7.61116 86 17V69C86 78.3888 78.3888 86 69 86H17C7.61116 86 0 78.3888 0 69V17Z" fill="url(#paint0_radial_0_366)"/>
<g clip-path="url(#clip1_0_366)">
<path d="M17.4688 61.1406C17.4688 63.8505 19.6859 66.0677 22.3958 66.0677H61.8125C64.5224 66.0677 66.7396 63.8505 66.7396 61.1406V53.75H17.4688V61.1406ZM22.3958 58.6771H61.8125V61.1406H22.3958V58.6771Z" fill="white"/>
<path d="M58.5112 42.6641C53.7073 42.6641 53.3624 45.1276 50.3076 45.1276C47.376 45.1276 46.8094 42.6641 42.104 42.6641C37.3001 42.6641 36.9552 45.1276 33.9004 45.1276C30.9688 45.1276 30.4022 42.6641 25.6968 42.6641C20.8929 42.6641 20.548 45.1276 17.4932 45.1276V50.0547C22.174 50.0547 22.8391 47.5911 25.7461 47.5911C28.6777 47.5911 29.2443 50.0547 33.9497 50.0547C38.7536 50.0547 39.0985 47.5911 42.1533 47.5911C45.0849 47.5911 45.6515 50.0547 50.3569 50.0547C55.1608 50.0547 55.5057 47.5911 58.5605 47.5911C61.4921 47.5911 62.0094 50.0054 66.7394 50.0547L66.7148 45.1769C62.7485 44.3639 62.7239 42.6641 58.5112 42.6641Z" fill="white"/>
<path d="M66.7396 36.5051C66.7888 26.651 56.1956 21.7239 42.1042 21.7239C28.0373 21.7239 17.4688 26.651 17.4688 36.5051V38.9687H66.7396V36.5051ZM22.8393 34.0416C24.884 28.6464 33.7528 26.651 42.1042 26.651C50.2585 26.651 56.713 28.4493 59.817 31.5534C60.5561 32.3171 61.0981 33.1301 61.4183 34.0416H22.8393Z" fill="white"/>
</g>
</g>
<defs>
<radialGradient id="paint0_radial_0_366" cx="0" cy="0" r="1" gradientUnits="userSpaceOnUse" gradientTransform="translate(1.33919e-06 15.8421) rotate(42.0892) scale(141.809)">
<stop stop-color="#68F756"/>
<stop offset="1" stop-color="#E1A938" stop-opacity="0.52"/>
</radialGradient>
<clipPath id="clip0_0_366">
<rect width="86" height="86" fill="white"/>
</clipPath>
<clipPath id="clip1_0_366">
<rect width="59.125" height="59.125" fill="white" transform="translate(12.5417 14.3333)"/>
</clipPath>
</defs>
</svg>
