<svg width="88" height="88" viewBox="0 0 88 88" fill="none" xmlns="http://www.w3.org/2000/svg">
<g clip-path="url(#clip0_0_338)">
<path d="M0 17C0 7.61116 7.61116 0 17 0H71C80.3888 0 88 7.61116 88 17V71C88 80.3888 80.3888 88 71 88H17C7.61116 88 0 80.3888 0 71V17Z" fill="url(#paint0_radial_0_338)"/>
<g clip-path="url(#clip1_0_338)">
<path d="M34.7414 62.9932C32.9015 62.9932 31.4047 64.49 31.4047 66.3299C31.4047 68.1697 32.9014 69.6667 34.7414 69.6667C36.5814 69.6667 38.0781 68.1698 38.0781 66.3299C38.0781 64.4899 36.5812 62.9932 34.7414 62.9932Z" fill="white"/>
<path d="M68.1091 56.3197H26.2888V18.0576C26.2888 17.1974 25.5914 16.5 24.7312 16.5H18.0576C17.1974 16.5 16.5 17.1974 16.5 18.0576C16.5 18.9178 17.1974 19.6152 18.0576 19.6152H23.1736V61.4355C23.1736 62.2957 23.871 62.9931 24.7312 62.9931H29.2213C30.3533 61.1273 32.4042 59.8779 34.7415 59.8779C37.0787 59.8779 39.1296 61.1273 40.2617 62.9931H52.5786C53.7106 61.1273 55.7615 59.8779 58.0988 59.8779C60.436 59.8779 62.4869 61.1273 63.619 62.9931H68.1091C68.9693 62.9931 69.6667 62.2957 69.6667 61.4355V57.8772C69.6667 57.0171 68.9693 56.3197 68.1091 56.3197Z" fill="white"/>
<path d="M58.0988 62.9932C56.2589 62.9932 54.762 64.49 54.762 66.3299C54.762 68.1697 56.2589 69.6667 58.0988 69.6667C59.9386 69.6667 61.4355 68.1698 61.4355 66.3299C61.4355 64.4899 59.9386 62.9932 58.0988 62.9932Z" fill="white"/>
<path d="M38.0782 49.8676V53.2043H54.762V49.8676C54.762 47.1441 56.971 44.9732 59.6564 44.9732H62.9932V38.2997H59.6564C56.9577 38.2997 54.762 36.1041 54.762 33.4053V30.0686H38.0782V33.4052C38.0782 36.104 35.8825 38.2996 33.1838 38.2996H29.847V44.9731H33.1838C35.8826 44.9732 38.0782 47.1689 38.0782 49.8676Z" fill="white"/>
<path d="M34.963 33.4053V30.0686H34.7414C32.0427 30.0686 29.847 32.2642 29.847 34.963V35.1844H33.1838C34.1649 35.1845 34.963 34.3864 34.963 33.4053Z" fill="white"/>
<path d="M59.6565 35.1845H62.9932V34.9629C62.9932 32.2642 60.7975 30.0686 58.0988 30.0686H57.8773V33.4053C57.8773 34.3864 58.6755 35.1845 59.6565 35.1845Z" fill="white"/>
<path d="M34.7414 53.2045H34.963V49.8677C34.963 48.8867 34.1648 48.0886 33.1838 48.0886H29.847V48.3101C29.8471 51.0089 32.0427 53.2045 34.7414 53.2045Z" fill="white"/>
<path d="M57.8773 49.8677V53.2045H58.0988C60.7975 53.2045 62.9932 51.0089 62.9932 48.3101V48.0886H59.6565C58.6755 48.0886 57.8773 48.8867 57.8773 49.8677Z" fill="white"/>
<path d="M42.9727 23.395H49.8676V26.9533H52.9829V21.8374C52.9829 20.9772 52.2855 20.2798 51.4252 20.2798H41.415C40.5548 20.2798 39.8574 20.9772 39.8574 21.8374V26.9533H42.9727V23.395Z" fill="white"/>
</g>
</g>
<defs>
<radialGradient id="paint0_radial_0_338" cx="0" cy="0" r="1" gradientUnits="userSpaceOnUse" gradientTransform="translate(-16.4179 -13.1343) rotate(46.1425) scale(163.026)">
<stop stop-color="#FF862E"/>
<stop offset="1" stop-color="#D41EE8" stop-opacity="0.56"/>
</radialGradient>
<clipPath id="clip0_0_338">
<rect width="88" height="88" fill="white"/>
</clipPath>
<clipPath id="clip1_0_338">
<rect width="53.1667" height="53.1667" fill="white" transform="translate(16.5 16.5)"/>
</clipPath>
</defs>
</svg>
