<svg width="87" height="87" viewBox="0 0 87 87" fill="none" xmlns="http://www.w3.org/2000/svg">
<g clip-path="url(#clip0_0_376)">
<path d="M0 17C0 7.61116 7.61116 0 17 0H70C79.3888 0 87 7.61116 87 17V70C87 79.3888 79.3888 87 70 87H17C7.61116 87 0 79.3888 0 70V17Z" fill="url(#paint0_radial_0_376)"/>
<g clip-path="url(#clip1_0_376)">
<path d="M69.3281 48.7344H63.9844V46.0625C63.9844 44.5894 62.7856 43.3906 61.3125 43.3906H52.4062C51.6385 43.3906 50.9501 43.7211 50.462 44.2412L40.8281 42.6363V40.4044C43.4858 38.8618 45.2812 35.9913 45.2812 32.7031H46.1719C47.645 32.7031 48.8438 31.5044 48.8438 30.0313C48.8438 28.5582 47.645 27.3594 46.1719 27.3594H45.7444L46.2324 26.2274C47.148 24.1068 46.9841 21.6576 45.796 19.6769C45.0426 18.4211 43.9409 17.4369 42.6085 16.8313L40.1227 15.6993C37.1881 14.3634 33.5909 14.7544 31.0108 16.6879L29.6062 17.7406L29.608 17.7433C28.2187 18.1058 26.9923 19 26.2388 20.2558C25.2582 21.891 25.1816 23.8851 26.034 25.5906L26.9183 27.3594H26.5781C25.105 27.3594 23.9062 28.5582 23.9062 30.0313C23.9062 31.5044 25.105 32.7031 26.5781 32.7031H27.4688C27.4688 35.9913 29.2642 38.8618 31.9219 40.4044V42.6363L21.0999 44.4398C18.0816 44.943 15.8906 47.5285 15.8906 50.5896V69.2188C15.8906 69.7113 16.2896 70.1094 16.7812 70.1094H44.3906H45.2812H69.3281C70.3105 70.1094 71.1094 69.3105 71.1094 68.3281V50.5156C71.1094 49.5333 70.3105 48.7344 69.3281 48.7344ZM62.2031 46.0625V48.7344H56.5637C56.0863 47.2105 55.0443 45.9441 53.679 45.1719H61.3125C61.8032 45.1719 62.2031 45.5709 62.2031 46.0625ZM51.5156 46.2362C52.9184 46.5239 54.0753 47.4661 54.6595 48.7344H51.5156V46.2362ZM47.0625 30.0313C47.0625 30.522 46.6626 30.9219 46.1719 30.9219H45.2812V29.1406H46.1719C46.6626 29.1406 47.0625 29.5405 47.0625 30.0313ZM27.7662 21.1722C28.4431 20.0447 29.6811 19.3438 30.9956 19.3438C32.3921 19.3438 33.688 20.0376 34.4637 21.1989L34.7434 21.6184L36.2254 20.6307L35.9457 20.2112C35.1424 19.0071 33.9445 18.161 32.5863 17.7852C34.6027 16.5347 37.2149 16.3317 39.3844 17.3194L41.8702 18.4514C42.8721 18.9074 43.7013 19.6475 44.2686 20.5924C45.1628 22.0824 45.2857 23.9251 44.5972 25.5211L44.5376 25.6601L43.4065 23.3979C43.288 23.1619 43.0716 22.99 42.8142 22.9294C42.5577 22.868 42.287 22.9259 42.075 23.0835L40.65 24.1522C39.4245 25.0723 37.906 25.5781 36.375 25.5781C34.844 25.5781 33.3255 25.0723 32.1 24.1531L30.675 23.0844C30.463 22.925 30.1914 22.868 29.9358 22.9303C29.6784 22.9909 29.462 23.1628 29.3435 23.3988L28.1367 25.8133L27.6273 24.7944C27.0484 23.6366 27.1 22.2819 27.7662 21.1722ZM26.5781 30.9219C26.0874 30.9219 25.6875 30.522 25.6875 30.0313C25.6875 29.5405 26.0874 29.1406 26.5781 29.1406H27.4688V30.9219H26.5781ZM29.25 32.7031V27.5696L30.4595 25.1497L31.0312 25.5781C32.5631 26.727 34.461 27.3594 36.375 27.3594C38.289 27.3594 40.1869 26.727 41.7188 25.5781L42.2905 25.1497L43.5 27.5696V32.7031C43.5 36.6317 40.3035 39.8281 36.375 39.8281C32.4465 39.8281 29.25 36.6317 29.25 32.7031ZM36.375 41.6094C37.3057 41.6094 38.2026 41.4651 39.0469 41.1988V43.0219L36.375 45.6938L33.7031 43.0219V41.1988C34.5474 41.4651 35.4443 41.6094 36.375 41.6094ZM36.0873 51.4063H36.6627L38.1162 55.04L36.375 62.5863L34.6338 55.04L36.0873 51.4063ZM38.0636 47.7128L36.7891 49.625H35.9609L34.6855 47.7128L34.983 46.8213L35.7453 47.5837C35.919 47.7565 36.147 47.8438 36.375 47.8438C36.603 47.8438 36.831 47.7565 37.0047 47.5828L37.767 46.8204L38.0636 47.7128ZM26.5781 68.3281V53.1875H24.7969V68.3281H17.6719V50.5896C17.6719 48.404 19.2367 46.5559 21.3929 46.1961L32.507 44.3445L33.5749 45.4124L32.8579 47.5623C32.7706 47.8233 32.8089 48.1092 32.9621 48.3381L34.4833 50.6198L32.8757 54.6383C32.808 54.8067 32.7947 54.9919 32.8348 55.1691L35.5066 66.7473C35.6002 67.1516 35.96 67.4375 36.375 67.4375C36.79 67.4375 37.1498 67.1516 37.2434 66.7473L39.9152 55.1691C39.9553 54.9928 39.942 54.8076 39.8743 54.6383L38.2667 50.6198L39.7879 48.3381C39.9402 48.1092 39.9785 47.8233 39.8921 47.5623L39.1751 45.4124L40.243 44.3445L49.7477 45.928C49.746 45.9734 49.7344 46.0162 49.7344 46.0625V48.7344H44.3906C43.4083 48.7344 42.6094 49.5333 42.6094 50.5156V68.3281H26.5781ZM45.2812 68.3281H44.3906V66.5469H69.329V68.3281H45.2812ZM69.329 64.7656H44.3906V57.5418C45.5235 58.7005 47.0999 59.4219 48.8438 59.4219H54.1875V60.3125C54.1875 61.7856 55.3863 62.9844 56.8594 62.9844C58.3325 62.9844 59.5312 61.7856 59.5312 60.3125V59.4219H64.875C66.6188 59.4219 68.1961 58.6996 69.329 57.5418V64.7656ZM55.9688 60.3125V55.8594H57.75V60.3125C57.75 60.8041 57.3501 61.2031 56.8594 61.2031C56.3686 61.2031 55.9688 60.8041 55.9688 60.3125ZM69.3281 53.1875C69.3281 55.643 67.3305 57.6406 64.875 57.6406H59.5312V54.9688C59.5312 54.4762 59.1323 54.0781 58.6406 54.0781H55.0781C54.5865 54.0781 54.1875 54.4762 54.1875 54.9688V57.6406H48.8438C46.3883 57.6406 44.3906 55.643 44.3906 53.1875V50.5156H69.3281V53.1875Z" fill="white"/>
</g>
</g>
<defs>
<radialGradient id="paint0_radial_0_376" cx="0" cy="0" r="1" gradientUnits="userSpaceOnUse" gradientTransform="translate(-1.14474 1.14474) rotate(47.4293) scale(133.68)">
<stop stop-color="#1DF0EB"/>
<stop offset="1" stop-color="#1CE66F" stop-opacity="0.51"/>
</radialGradient>
<clipPath id="clip0_0_376">
<rect width="87" height="87" fill="white"/>
</clipPath>
<clipPath id="clip1_0_376">
<rect width="57" height="57" fill="white" transform="translate(15 14)"/>
</clipPath>
</defs>
</svg>
