<svg width="88" height="88" viewBox="0 0 88 88" fill="none" xmlns="http://www.w3.org/2000/svg">
<g clip-path="url(#clip0_0_351)">
<path d="M0 17C0 7.61116 7.61116 0 17 0H71C80.3888 0 88 7.61116 88 17V71C88 80.3888 80.3888 88 71 88H17C7.61116 88 0 80.3888 0 71V17Z" fill="url(#paint0_radial_0_351)"/>
<g clip-path="url(#clip1_0_351)">
<path d="M74.8771 28.6551C74.7503 28.4256 74.5372 28.2554 74.2846 28.1831L25.9188 14.1627C25.3952 14.0113 24.8484 14.3126 24.6965 14.8362L22.1648 23.5689H18.9623C17.3264 23.5689 16 24.8953 16 26.5312V69.9786C16 71.6146 17.3264 72.9409 18.9623 72.9409H44.6358C46.2717 72.9409 47.5981 71.6146 47.5981 69.9786V50.2616L66.3151 55.6863C66.4043 55.7128 66.4964 55.7258 66.5895 55.7258C67.0292 55.7258 67.4154 55.4351 67.5374 55.0132L74.961 29.4068C75.0338 29.1551 75.0039 28.8846 74.8771 28.6551ZM45.6232 69.9786C45.6232 70.5239 45.1811 70.9661 44.6358 70.9661H18.9623C18.417 70.9661 17.9749 70.5239 17.9749 69.9786V26.5312C17.9749 25.9859 18.417 25.5438 18.9623 25.5438H44.6358C45.1811 25.5438 45.6232 25.9859 45.6232 26.5312V69.9786ZM53.6549 34.0566L50.6742 29.2963C50.0431 28.1488 50.0677 25.9666 50.4674 25.7472C50.8676 25.5279 52.7238 26.6715 53.3313 27.7713L55.7869 32.8864C55.987 33.302 56.4484 33.5238 56.8978 33.4206L65.8508 31.3696L66.967 33.3961L58.7208 36.5122C58.4614 36.6101 58.2555 36.8121 58.1528 37.0691C58.0497 37.3261 58.0593 37.6149 58.1794 37.8641L59.7594 41.1601C59.9445 41.5453 60.3563 41.7676 60.7796 41.7112L65.4511 41.0902L65.7293 41.5969L60.2603 43.0414C60.1031 43.0824 59.959 43.162 59.8404 43.2724L55.6934 47.1233L55.4147 46.6171L58.4373 43.0029C58.7116 42.675 58.744 42.2078 58.5173 41.8457L56.5839 38.7412C56.4374 38.5064 56.1992 38.3444 55.9272 38.2937C55.6548 38.2417 55.3732 38.3082 55.1529 38.4765L48.1087 43.7767L47.5981 42.8486V41.1505L53.5131 35.2808C53.8405 34.9563 53.8993 34.4476 53.6549 34.0566ZM65.9159 53.5152L47.5981 48.2048V46.2159C47.8744 46.2728 48.1622 46.2082 48.3879 46.039L55.4817 40.7011L56.4692 42.2811L53.4736 45.8635C53.2123 46.1759 53.1693 46.6166 53.3656 46.9734L54.5792 49.1782C54.7257 49.4444 54.987 49.6286 55.2874 49.6768C55.339 49.6855 55.3916 49.6898 55.4441 49.6898C55.6939 49.6898 55.934 49.5958 56.1167 49.4261L61.0086 44.8837L67.4617 43.1793C67.7553 43.1017 67.9969 42.8929 68.1164 42.6133C68.236 42.3341 68.2201 42.0149 68.0735 41.7488L66.8532 39.5449C66.6579 39.191 66.2669 38.9919 65.8658 39.042L61.2357 39.6582L60.4291 37.9798L68.7293 34.8406C68.9964 34.7393 69.2066 34.5277 69.3059 34.2596C69.4047 33.9915 69.3831 33.694 69.2456 33.4433L67.2216 29.766C67.0085 29.3798 66.5654 29.1816 66.1353 29.2804L57.2257 31.3165L55.0859 26.8629C54.2277 25.3042 51.3878 22.9797 49.5147 24.0134C47.6415 25.0472 48.0861 28.6859 48.9718 30.2925L51.5619 34.4307L47.5981 38.368V26.5312C47.5981 24.8953 46.2717 23.5689 44.6358 23.5689H24.2206L26.318 16.3338L72.7899 29.8055L65.9159 53.5152Z" fill="white"/>
<path d="M34.4919 28.8273C34.4663 28.821 34.4436 28.8114 34.4176 28.8075C29.6487 27.7087 24.6946 29.6551 21.9492 33.7066C19.2034 37.7581 19.2309 43.0806 22.0182 47.1031C24.806 51.1257 29.7798 53.021 34.5372 51.873C34.5618 51.8653 34.5878 51.8624 34.6114 51.8533C39.9368 50.5573 43.6758 45.7739 43.6474 40.2933C43.6189 34.8122 39.8307 30.0679 34.4919 28.8273ZM39.6798 34.4308H37.6249C36.8182 33.0287 35.7305 31.8084 34.4297 30.8465C36.5265 31.4309 38.3717 32.6908 39.6798 34.4308ZM40.8292 44.3342C40.7825 44.3207 40.7342 44.311 40.686 44.3052H38.5313C38.8664 43.3487 39.0776 42.353 39.1605 41.3429H41.6233C41.5197 42.3757 41.2516 43.3858 40.8292 44.3342ZM22.7689 44.3342C22.3465 43.3858 22.0785 42.3757 21.9748 41.3429H24.9313C25.0138 42.353 25.2245 43.3487 25.5596 44.3052H22.9121C22.8639 44.311 22.8157 44.3207 22.7689 44.3342ZM22.7689 36.3773C22.8157 36.3903 22.8639 36.3999 22.9121 36.4057H25.5605C25.2254 37.3623 25.0143 38.3579 24.9313 39.368H21.9748C22.0785 38.3353 22.3465 37.3256 22.7689 36.3773ZM37.162 39.368H32.7865V36.4057H36.4103C36.8134 37.3483 37.067 38.3478 37.162 39.368ZM32.7865 34.4308V32.1252C33.7305 32.7472 34.5603 33.5273 35.2392 34.4308H32.7865ZM30.8116 32.4796V34.4308H28.8575C29.4144 33.6922 30.072 33.035 30.8116 32.4796ZM30.8116 36.4057V39.368H26.9298C27.0253 38.3473 27.2794 37.3478 27.6834 36.4057H30.8116ZM26.9298 41.3429H30.8116V44.3052H27.6815C27.2784 43.3631 27.0248 42.3636 26.9298 41.3429ZM30.8116 46.2801V48.2372C30.0691 47.6808 29.4095 47.0221 28.8526 46.2801H30.8116ZM32.7865 48.5838V46.2801H35.2344C34.5555 47.1822 33.7277 47.9609 32.7865 48.5838ZM32.7865 44.3052V41.3429H37.162C37.0665 42.3636 36.8124 43.3631 36.4084 44.3052H32.7865ZM41.6233 39.368H39.1605C39.0781 38.3579 38.8674 37.3623 38.5323 36.4057H40.686C40.7342 36.3999 40.7825 36.3903 40.8292 36.3773C41.2516 37.3256 41.5197 38.3353 41.6233 39.368ZM29.5942 30.738H29.6038C29.6554 30.7496 29.7027 30.7675 29.7552 30.7795C28.4168 31.7525 27.2982 32.9969 26.4728 34.4308H23.9183C25.3166 32.5697 27.3262 31.2621 29.5942 30.738ZM23.9183 46.2801H26.467C27.2914 47.7135 28.4091 48.9565 29.747 49.9276C29.6969 49.9396 29.6482 49.9575 29.6009 49.9681L29.5913 49.9734C27.3242 49.4483 25.3156 48.1407 23.9183 46.2801ZM34.4166 49.8668C35.7194 48.904 36.8096 47.6832 37.6191 46.2801H39.6798C38.3693 48.0236 36.5188 49.2844 34.4166 49.8668Z" fill="white"/>
<path d="M42.6608 58.1294H20.9371C20.3918 58.1294 19.9496 58.5715 19.9496 59.1168C19.9496 59.6621 20.3918 60.1043 20.9371 60.1043H42.6608C43.2061 60.1043 43.6482 59.6621 43.6482 59.1168C43.6482 58.5715 43.2061 58.1294 42.6608 58.1294Z" fill="white"/>
<path d="M42.6609 61.0916H39.6985C39.1532 61.0916 38.7111 61.5337 38.7111 62.079C38.7111 62.6243 39.1532 63.0665 39.6985 63.0665H42.6609C43.2062 63.0665 43.6483 62.6243 43.6483 62.079C43.6483 61.5337 43.2062 61.0916 42.6609 61.0916Z" fill="white"/>
<path d="M36.7363 61.0916H20.9371C20.3918 61.0916 19.9496 61.5337 19.9496 62.079C19.9496 62.6243 20.3918 63.0665 20.9371 63.0665H36.7363C37.2816 63.0665 37.7237 62.6243 37.7237 62.079C37.7237 61.5337 37.2816 61.0916 36.7363 61.0916Z" fill="white"/>
<path d="M34.7614 64.054H20.9371C20.3918 64.054 19.9496 64.4961 19.9496 65.0414C19.9496 65.5867 20.3918 66.0289 20.9371 66.0289H34.7614C35.3067 66.0289 35.7488 65.5867 35.7488 65.0414C35.7488 64.4961 35.3067 64.054 34.7614 64.054Z" fill="white"/>
<path d="M23.8995 28.5061C24.4448 28.5061 24.8869 28.064 24.8869 27.5187C24.8869 26.9734 24.4448 26.5312 23.8995 26.5312H19.9497C19.4044 26.5312 18.9622 26.9734 18.9622 27.5187C18.9622 28.064 19.4044 28.5061 19.9497 28.5061H23.8995Z" fill="white"/>
</g>
</g>
<defs>
<radialGradient id="paint0_radial_0_351" cx="0" cy="0" r="1" gradientUnits="userSpaceOnUse" gradientTransform="translate(5.25373 3.28358) rotate(43.8029) scale(155.597)">
<stop stop-color="#FFEB33"/>
<stop offset="1" stop-color="#FDB35C" stop-opacity="0.56"/>
</radialGradient>
<clipPath id="clip0_0_351">
<rect width="88" height="88" fill="white"/>
</clipPath>
<clipPath id="clip1_0_351">
<rect width="59" height="59" fill="white" transform="translate(16 14)"/>
</clipPath>
</defs>
</svg>
