<svg width="66" height="67" viewBox="0 0 66 67" fill="none" xmlns="http://www.w3.org/2000/svg">
<g clip-path="url(#clip0_0_679)">
<path d="M65.9651 34.1267C65.9651 31.3818 65.7406 29.3787 65.2547 27.3014H33.6573V39.6908H52.2042C51.8305 42.7697 49.8112 47.4065 45.3239 50.5223L45.261 50.9371L55.2515 58.6147L55.9437 58.6832C62.3004 52.8594 65.9651 44.2905 65.9651 34.1267Z" fill="#4285F4"/>
<path d="M33.6573 66.7699C42.7438 66.7699 50.372 63.8022 55.9438 58.6833L45.324 50.5224C42.4822 52.4884 38.6679 53.8609 33.6573 53.8609C24.7578 53.8609 17.2044 48.0372 14.5118 39.9877L14.1171 40.021L3.72887 47.9963L3.59302 48.3709C9.12717 59.2766 20.4948 66.7699 33.6573 66.7699Z" fill="#34A853"/>
<path d="M14.512 39.9877C13.8015 37.9105 13.3903 35.6847 13.3903 33.3849C13.3903 31.0849 13.8015 28.8593 14.4746 26.7821L14.4558 26.3397L3.93732 18.2363L3.59318 18.3987C1.31229 22.9242 0.00350952 28.0063 0.00350952 33.3849C0.00350952 38.7636 1.31229 43.8454 3.59318 48.3709L14.512 39.9877Z" fill="#FBBC05"/>
<path d="M33.6573 12.9088C39.9767 12.9088 44.2394 15.6167 46.6701 17.8796L56.1679 8.68011C50.3348 3.30144 42.7437 3.05176e-05 33.6573 3.05176e-05C20.4948 3.05176e-05 9.12717 7.49303 3.59302 18.3987L14.4744 26.7821C17.2044 18.7327 24.7578 12.9088 33.6573 12.9088Z" fill="#EB4335"/>
</g>
<defs>
<clipPath id="clip0_0_679">
<rect width="66" height="67" fill="white"/>
</clipPath>
</defs>
</svg>
