<svg width="50" height="50" viewBox="0 0 50 50" fill="none" xmlns="http://www.w3.org/2000/svg">
<path d="M36.6379 2.15518C31.8132 2.1556 27.3635 4.75907 25 8.96544C22.6365 4.75907 18.1868 2.1556 13.3621 2.15518C5.98271 2.15518 0 8.99996 0 16.3793C0 34.9138 25 47.8448 25 47.8448C25 47.8448 50 34.9138 50 16.3793C50 8.99996 44.0173 2.15518 36.6379 2.15518Z" fill="url(#paint0_radial_0_301)"/>
<path d="M3.44828 16.3793C3.44828 9.55177 8.57228 3.19401 15.1826 2.27933C14.5794 2.19641 13.9712 2.15473 13.3621 2.15515C5.98271 2.15515 0 8.99993 0 16.3793C0 34.9138 25 47.8448 25 47.8448C25 47.8448 25.6465 47.5093 26.7241 46.8758C21.0761 43.5542 3.44828 31.9449 3.44828 16.3793Z" fill="#FF5023"/>
<defs>
<radialGradient id="paint0_radial_0_301" cx="0" cy="0" r="1" gradientUnits="userSpaceOnUse" gradientTransform="translate(-2.97987e-06 2.00003) rotate(42.6141) scale(67.9412 74.3507)">
<stop stop-color="#FF1C1C"/>
<stop offset="1" stop-color="#FF6A6A" stop-opacity="0.87"/>
</radialGradient>
</defs>
</svg>
