<svg width="27" height="27" viewBox="0 0 27 27" fill="none" xmlns="http://www.w3.org/2000/svg">
<g clip-path="url(#clip0_0_798)">
<path d="M26.3877 4.9982C25.9635 5.1863 25.5274 5.34508 25.0818 5.47402C25.6094 4.87738 26.0116 4.17538 26.2571 3.40721C26.3122 3.23503 26.2551 3.04656 26.1136 2.93392C25.9722 2.82122 25.7758 2.80772 25.6202 2.89996C24.6739 3.46121 23.6529 3.86457 22.5824 4.1004C21.5041 3.04671 20.0395 2.44702 18.5254 2.44702C15.3294 2.44702 12.7292 5.04713 12.7292 8.24303C12.7292 8.49473 12.7451 8.74506 12.7767 8.99191C8.81074 8.64371 5.12367 6.69439 2.5918 3.58861C2.50157 3.47792 2.36256 3.41823 2.22023 3.42967C2.07785 3.4408 1.94986 3.52111 1.87793 3.64456C1.36441 4.5257 1.09293 5.5335 1.09293 6.55892C1.09293 7.95553 1.59153 9.28058 2.47235 10.316C2.20452 10.2233 1.94464 10.1073 1.69658 9.96966C1.56343 9.89551 1.4009 9.89667 1.26859 9.9725C1.13623 10.0484 1.05322 10.1879 1.04969 10.3404C1.04906 10.3661 1.04906 10.3917 1.04906 10.4178C1.04906 12.5024 2.17103 14.3793 3.88642 15.4022C3.73903 15.3875 3.59179 15.3662 3.44546 15.3382C3.29459 15.3094 3.13949 15.3623 3.03777 15.4773C2.93589 15.5923 2.90214 15.7525 2.94912 15.8989C3.58404 17.8812 5.21875 19.3393 7.19496 19.7838C5.55588 20.8104 3.6815 21.3482 1.71383 21.3482C1.30324 21.3482 0.890328 21.3241 0.486226 21.2762C0.285467 21.2523 0.0935151 21.3709 0.0251188 21.5618C-0.0432774 21.7528 0.0292321 21.9658 0.199985 22.0753C2.7278 23.696 5.65064 24.5527 8.65243 24.5527C14.5535 24.5527 18.2451 21.77 20.3028 19.4355C22.8687 16.5247 24.3402 12.6718 24.3402 8.86493C24.3402 8.70588 24.3378 8.54531 24.3329 8.38521C25.3452 7.62251 26.2168 6.69945 26.926 5.63855C27.0337 5.47744 27.0221 5.26445 26.8972 5.11616C26.7727 4.96761 26.565 4.91962 26.3877 4.9982Z" fill="black"/>
</g>
<defs>
<clipPath id="clip0_0_798">
<rect width="27" height="27" fill="white"/>
</clipPath>
</defs>
</svg>
