<svg width="112" height="604" viewBox="0 0 112 604" fill="none" xmlns="http://www.w3.org/2000/svg">
<path fill-rule="evenodd" clip-rule="evenodd" d="M62 2.5C62 1.11928 63.1193 0 64.5 0C65.8807 0 67 1.11929 67 2.5V18.8248C67.1274 19.0545 67.2 19.3188 67.2 19.6V51.946C68.1516 52.449 68.8 53.4488 68.8 54.6V70.8H69C70.6569 70.8 72 72.1432 72 73.8V105.8V187.6H83.4C85.0569 187.6 86.4 188.943 86.4 190.6V290H90.8C91.9046 290 92.8 290.895 92.8 292V390.8H102C103.105 390.8 104 391.695 104 392.8V483.6H110C111.105 483.6 112 484.495 112 485.6V601.6C112 602.705 111.105 603.6 110 603.6H102.016C102.011 603.6 102.005 603.6 102 603.6L91.6 603.6H90.8L83.6 603.6L83.5842 603.6H83.4H72.4H70.2C69.9945 603.6 69.7939 603.579 69.6 603.54C69.4061 603.579 69.2055 603.6 69 603.6H65.8571C65.4662 603.853 65.0003 604 64.5 604C63.9997 604 63.5338 603.853 63.1429 603.6H60.6C60.0944 603.6 59.6179 603.475 59.2 603.254C58.7821 603.475 58.3056 603.6 57.8 603.6H44.6C44.3946 603.6 44.194 603.579 44.0001 603.54C43.8062 603.579 43.6055 603.6 43.4 603.6L30.6 603.6L30.2 603.6L30.1807 603.6H17.4C17.1945 603.6 16.9939 603.579 16.8 603.54C16.6061 603.579 16.4055 603.6 16.2 603.6H3C1.34314 603.6 0 602.257 0 600.6V459.4C0 457.743 1.34315 456.4 3 456.4H14.4V358.6C14.4 356.943 15.7431 355.6 17.4 355.6H27.2V259.4C27.2 257.743 28.5431 256.4 30.2 256.4H41.6V157C41.6 155.343 42.9431 154 44.6 154H57.6V105.8V73.8C57.6 72.1431 58.9431 70.8 60.6 70.8H60.8V54.6C60.8 53.6185 61.2713 52.7471 62 52.1998V2.5Z" fill="url(#paint0_linear_0_54)"/>
<defs>
<linearGradient id="paint0_linear_0_54" x1="56" y1="400" x2="56" y2="603.6" gradientUnits="userSpaceOnUse">
<stop stop-color="#F3F3F3"/>
<stop offset="1" stop-color="#F1F1F1" stop-opacity="0"/>
</linearGradient>
</defs>
</svg>
