<svg width="211" height="41" viewBox="0 0 211 41" fill="none" xmlns="http://www.w3.org/2000/svg">
<path fill-rule="evenodd" clip-rule="evenodd" d="M210.106 17.8805C210.6 17.8805 211 17.4802 211 16.9865C211 16.4927 210.6 16.0924 210.106 16.0924L204.268 16.0924C204.186 16.0469 204.091 16.0209 203.991 16.0209L192.261 16.0209C192 15.6735 191.585 15.4487 191.117 15.4487L185.247 15.4487C184.785 14.7587 183.999 14.3044 183.106 14.3044L171.662 14.3044L143.624 14.3044C143.808 13.9153 143.911 13.4801 143.911 13.0209L143.911 12.1547C143.911 10.4978 142.568 9.15468 140.911 9.15468L107.291 9.15468L107.291 8.86593C107.291 7.76136 106.396 6.86593 105.291 6.86593L71.2438 6.86593L71.2438 4.86063C71.2438 3.75606 70.3483 2.86063 69.2438 2.86063L38.0569 2.86063L38.0569 1.99971C38.0569 0.895138 37.1615 -0.000289886 36.0569 -0.000289935L-2.85704 -0.000291636C-3.96161 -0.000291684 -4.85704 0.895136 -4.85704 1.9997L-4.85704 6.01031C-4.85704 6.0162 -4.85701 6.02209 -4.85696 6.02796L-4.85696 8.86592L-4.85696 8.87123L-4.85696 12.1212L-4.85715 12.1547L-4.85715 13.0209C-4.85715 13.7964 -4.5629 14.5032 -4.07995 15.0356C-4.43873 15.3855 -4.69577 15.8393 -4.80246 16.3483C-4.823 16.3916 -4.83824 16.4379 -4.84738 16.4864C-4.94385 16.6291 -5.00018 16.8012 -5.00018 16.9865C-5.00018 17.2251 -4.90671 17.4419 -4.75436 17.6022C-4.58844 18.1704 -4.23192 18.6574 -3.75864 18.9891C-4.42929 19.5393 -4.85715 20.3745 -4.85715 21.3097L-4.85715 22.1759C-4.85715 23.0147 -4.51291 23.7731 -3.95799 24.3175C-4.51306 24.8619 -4.85742 25.6204 -4.85742 26.4593L-4.85742 27.3256C-4.85742 28.0262 -4.61723 28.6708 -4.21471 29.1814C-4.61708 29.6919 -4.85716 30.3363 -4.85716 31.0368L-4.85716 31.903C-4.85716 32.7419 -4.51288 33.5003 -3.95789 34.0448C-4.51288 34.5892 -4.85716 35.3476 -4.85716 36.1865L-4.85716 37.0527C-4.85716 38.7096 -3.51402 40.0527 -1.85716 40.0527L44.7839 40.0527C46.4408 40.0527 47.7839 38.7096 47.7839 37.0527L47.7839 36.1865C47.7839 35.7273 47.6808 35.2921 47.4963 34.903L80.8317 34.903C82.4885 34.903 83.8317 33.5599 83.8317 31.903L83.8317 31.0368C83.8317 30.7918 83.8023 30.5536 83.7468 30.3256L116.307 30.3256C117.964 30.3256 119.307 28.9824 119.307 27.3256L119.307 26.4594C119.307 26.0001 119.204 25.565 119.019 25.1759L152.927 25.1759C154.584 25.1759 155.927 23.8328 155.927 22.1759L155.927 21.3097C155.927 20.6091 155.687 19.9646 155.285 19.4541L171.662 19.4541L183.106 19.4541C183.999 19.4541 184.785 18.9997 185.247 18.3097L191.117 18.3097C191.517 18.3097 191.879 18.1454 192.138 17.8805L210.106 17.8805Z" fill="url(#paint0_radial_0_28)"/>
<defs>
<radialGradient id="paint0_radial_0_28" cx="0" cy="0" r="1" gradientUnits="userSpaceOnUse" gradientTransform="translate(6.00001 20) scale(346 64.1589)">
<stop stop-color="#F3F3F3"/>
<stop offset="1" stop-color="#F3F3F3" stop-opacity="0"/>
</radialGradient>
</defs>
</svg>
