<svg width="924" height="777" viewBox="0 0 924 777" fill="none" xmlns="http://www.w3.org/2000/svg">
<path d="M142.287 162.363C57.2983 123.067 31.6186 195.262 43.7308 244.611C67.282 340.567 -18.8621 240.626 3.85303 360.391C23.0559 461.639 60.6418 484.54 43.7308 553.243C3.85304 715.252 196.046 570.404 196.046 676.413C196.046 782.421 447.993 717.014 506.969 684.623C568.418 650.874 696.438 788.458 784.771 776.228C915.351 758.148 891.915 640.62 875.703 617.011C864.183 596.83 846.008 549.385 865.463 521.056C946.356 394.028 929.487 361.931 897.462 349.706C865.463 337.49 834.744 320.005 834.744 210.341C850.104 -104.942 542.487 2.81787 386.759 96.1083C331.583 129.162 227.277 201.66 142.287 162.363Z" fill="url(#paint0_radial_0_70)"/>
<defs>
<radialGradient id="paint0_radial_0_70" cx="0" cy="0" r="1" gradientUnits="userSpaceOnUse" gradientTransform="translate(116.51 168.745) rotate(40.3739) scale(914.209 977.715)">
<stop stop-color="#A6F59C"/>
<stop offset="1" stop-color="#1DF0EB"/>
</radialGradient>
</defs>
</svg>
